<svg width="55" height="54" viewBox="0 0 55 54" fill="none" xmlns="http://www.w3.org/2000/svg">
<path opacity="0.5" fill-rule="evenodd" clip-rule="evenodd" d="M19.9064 2.81251C19.9367 2.81252 19.9674 2.81253 19.9986 2.81253H34.6686C34.6997 2.81253 34.7304 2.81252 34.7607 2.81251C35.2556 2.81239 35.6312 2.8123 35.9588 2.84629L35.9643 2.84687C37.4849 3.00974 38.8912 3.72994 39.9122 4.86853C40.8657 5.93204 41.4199 7.2902 41.4861 8.71094C41.785 8.80057 42.0777 8.91188 42.362 9.04435C43.2197 9.44406 43.9796 10.0267 44.5883 10.7513C45.1969 11.4758 45.6396 12.3249 45.8853 13.2388C46.1309 14.1526 46.1736 15.1092 46.0102 16.0413L42.6859 15.4588C42.7642 15.0118 42.7438 14.5531 42.626 14.1149C42.5082 13.6766 42.2959 13.2695 42.004 12.922C41.7122 12.5746 41.3478 12.2952 40.9365 12.1035C40.5251 11.9118 40.0769 11.8125 39.6231 11.8125H15.0441C14.5903 11.8125 14.142 11.9118 13.7307 12.1035C13.3194 12.2952 12.955 12.5746 12.6631 12.922C12.3712 13.2695 12.159 13.6766 12.0412 14.1149C11.9234 14.5531 11.9029 15.0118 11.9812 15.4588L8.6569 16.0413C8.49356 15.1092 8.53621 14.1526 8.78186 13.2388C9.0275 12.3249 9.47019 11.4758 10.0789 10.7513C10.6875 10.0267 11.4474 9.44406 12.3052 9.04435C12.5887 8.91222 12.8807 8.80113 13.1787 8.71161C13.2448 7.29063 13.799 5.93221 14.7527 4.86853C15.7736 3.72994 17.18 3.00974 18.7006 2.84688L18.7061 2.84628L18.7061 2.84629C19.0337 2.8123 19.4114 2.81239 19.9064 2.81251ZM13.1721 9.01088C13.1721 9.01026 13.1721 9.00965 13.1721 9.00903H14.8596L13.1721 9.01272C13.1721 9.01211 13.1721 9.01149 13.1721 9.01088ZM16.6037 8.43753C16.7028 7.9512 16.9297 7.4962 17.2655 7.12162C17.7289 6.60481 18.367 6.27765 19.0571 6.203C19.1863 6.18981 19.3734 6.18753 19.9986 6.18753H34.6686C35.2935 6.18753 35.4786 6.18981 35.6078 6.203C36.2979 6.27765 36.936 6.60482 37.3993 7.12162C37.7352 7.4962 37.9621 7.9512 38.0612 8.43753H16.6037Z" fill="#C99B9D"/>
<path fill-rule="evenodd" clip-rule="evenodd" d="M24.6625 27.3697C24.6214 27.3966 24.5215 27.4956 24.5215 27.72V37.125C24.5215 37.3516 24.6222 37.4507 24.6625 37.4771C24.6634 37.4777 24.6642 37.4782 24.665 37.4787C24.6645 37.479 24.6656 37.4784 24.665 37.4787L32.252 32.7748C32.3 32.7451 32.397 32.6427 32.397 32.4225C32.397 32.2024 32.3011 32.1006 32.2531 32.0709L24.6685 27.3685C24.6684 27.3685 24.6686 27.3686 24.6685 27.3685C24.6679 27.3682 24.667 27.3676 24.6664 27.3672C24.6652 27.368 24.6639 27.3688 24.6625 27.3697ZM22.8116 24.5475C23.8437 23.8706 25.2321 23.7484 26.4444 24.4985L34.0294 29.2012C35.2384 29.9501 35.772 31.2458 35.772 32.4225C35.772 33.5996 35.2392 34.895 34.0295 35.6438C34.0295 35.6439 34.0296 35.6438 34.0295 35.6438L26.4463 40.3454C26.4461 40.3455 26.4466 40.3452 26.4463 40.3454C25.2345 41.0971 23.8447 40.9768 22.8116 40.2993C21.7961 39.6333 21.1465 38.46 21.1465 37.125V27.72C21.1465 26.3852 21.797 25.2129 22.8116 24.5475Z" fill="#C99B9D"/>
<path fill-rule="evenodd" clip-rule="evenodd" d="M11.2599 17.7105C9.26854 17.9751 8.24319 18.463 7.56161 19.1981C6.89538 19.9187 6.53477 20.898 6.52091 22.7508C6.5066 24.6634 6.85825 27.1854 7.36865 30.7982L8.31819 37.5485C8.31816 37.5483 8.31823 37.5487 8.31819 37.5485C8.71837 40.3852 8.99875 42.3472 9.41047 43.8177C9.807 45.234 10.2736 45.9906 10.9232 46.5287C11.5832 47.0754 12.4699 47.4262 14.0475 47.6156C15.6648 47.8097 17.7789 47.8125 20.7975 47.8125H33.87C36.8898 47.8125 39.0038 47.8097 40.6208 47.6156C42.1979 47.4263 43.0842 47.0755 43.7443 46.5287C44.3937 45.9907 44.8604 45.2338 45.257 43.8169C45.6687 42.3461 45.949 40.3847 46.3492 37.5492C46.3492 37.5494 46.3492 37.5489 46.3492 37.5492L47.2987 30.7992C47.808 27.1863 48.1592 24.6637 48.1449 22.7511C48.131 20.8975 47.7705 19.919 47.1053 19.1998C46.4236 18.4638 45.3984 17.9756 43.4074 17.7108C41.3797 17.441 38.6656 17.4375 34.8217 17.4375H19.8457C16.0019 17.4375 13.2877 17.441 11.2599 17.7105ZM19.7189 14.0625H34.9487C38.6367 14.0625 41.5761 14.0624 43.8524 14.3652C46.191 14.6763 48.1312 15.3399 49.5826 16.9076C51.0481 18.4923 51.5027 20.4451 51.5198 22.7259C51.5362 24.9179 51.1456 27.6882 50.6605 31.1291L50.6408 31.2693L49.6743 38.1401C49.2948 40.8291 48.9865 43.0141 48.5071 44.7267C48.0054 46.519 47.266 47.994 45.8972 49.1278C44.5391 50.2528 42.9278 50.7379 41.023 50.9665C39.1814 51.1876 36.8643 51.1875 33.9792 51.1875H20.6884C17.8043 51.1875 15.4872 51.1876 13.6453 50.9665C11.7405 50.7379 10.1285 50.2529 8.77028 49.1278C7.40165 47.9942 6.66223 46.5199 6.16045 44.7277C5.68077 43.0144 5.37237 40.828 4.99266 38.1361L4.00817 31.1382C3.52143 27.6933 3.12959 24.92 3.14601 22.7256C3.16308 20.444 3.61792 18.4915 5.08437 16.9059C6.53579 15.3397 8.47704 14.6757 10.8153 14.3649C13.0915 14.0624 16.0308 14.0625 19.7189 14.0625Z" fill="#C99B9D"/>
</svg>
