<svg width="54" height="54" viewBox="0 0 54 54" fill="none" xmlns="http://www.w3.org/2000/svg">
<path fill-rule="evenodd" clip-rule="evenodd" d="M17.0955 10.0957C17.6962 7.14825 20.3197 5.0625 23.3235 5.0625H30.6765C33.6803 5.0625 36.3015 7.14825 36.9045 10.0957C36.971 10.4203 37.1447 10.7131 37.3977 10.9269C37.6508 11.1408 37.9684 11.2633 38.2995 11.2748H38.3737C41.5305 11.4143 43.956 11.8012 45.981 13.131C47.2568 13.968 48.3548 15.0435 49.2098 16.3012C50.274 17.8628 50.742 19.6583 50.967 21.8273C51.1875 23.949 51.1875 26.6063 51.1875 29.9722V30.1635C51.1875 33.5295 51.1875 36.189 50.967 38.3085C50.742 40.4775 50.274 42.273 49.2098 43.8368C48.3521 45.0952 47.2549 46.1725 45.981 47.007C44.3993 48.0443 42.5835 48.5033 40.383 48.7215C38.2275 48.9375 35.5252 48.9375 32.0917 48.9375H21.9083C18.4748 48.9375 15.7725 48.9375 13.617 48.7215C11.4165 48.5033 9.60075 48.0465 8.019 47.007C6.74484 46.1718 5.6477 45.0938 4.79025 43.8345C3.726 42.273 3.258 40.4775 3.033 38.3085C2.8125 36.189 2.8125 33.5295 2.8125 30.1635V29.9722C2.8125 26.6063 2.8125 23.949 3.033 21.8273C3.258 19.6583 3.726 17.8628 4.79025 16.3012C5.6477 15.042 6.74484 13.9639 8.019 13.1287C10.044 11.8012 12.4695 11.4143 15.6263 11.277L15.6645 11.2748H15.7005C16.0316 11.2633 16.3492 11.1408 16.6023 10.9269C16.8553 10.7131 17.029 10.4203 17.0955 10.0957ZM23.3235 8.4375C21.8835 8.4375 20.6752 9.43425 20.403 10.7685C19.9643 12.9285 18.0472 14.6295 15.741 14.6498C12.708 14.7847 11.0835 15.156 9.8685 15.9525C8.96598 16.5448 8.18852 17.3084 7.58025 18.2002C6.95925 19.1115 6.58575 20.2793 6.38775 22.176C6.18975 24.102 6.1875 26.586 6.1875 30.069C6.1875 33.552 6.1875 36.0338 6.39 37.9598C6.58575 39.8565 6.95925 41.0243 7.5825 41.9378C8.1855 42.8242 8.96175 43.5893 9.87075 44.1855C10.809 44.7998 12.0105 45.171 13.9523 45.3645C15.9188 45.5603 18.4522 45.5625 22.0005 45.5625H31.9995C35.5455 45.5625 38.079 45.5625 40.0477 45.3645C41.9895 45.171 43.191 44.802 44.1293 44.1855C45.0383 43.5893 45.8167 42.8242 46.4198 41.9355C47.0408 41.0243 47.4142 39.8565 47.6122 37.9598C47.8102 36.0338 47.8125 33.5498 47.8125 30.069C47.8125 26.586 47.8125 24.102 47.61 22.176C47.4142 20.2793 47.0407 19.1115 46.4175 18.2002C45.8099 17.3073 45.0324 16.5427 44.1293 15.9503C42.9188 15.156 41.2943 14.7847 38.2568 14.6498C35.9528 14.6273 34.0357 12.9307 33.597 10.7685C33.453 10.1031 33.0838 9.5078 32.5517 9.08312C32.0196 8.65843 31.3573 8.43039 30.6765 8.4375H23.3235ZM27 24.1875C25.6573 24.1875 24.3697 24.7209 23.4203 25.6703C22.4709 26.6197 21.9375 27.9073 21.9375 29.25C21.9375 30.5927 22.4709 31.8803 23.4203 32.8297C24.3697 33.7791 25.6573 34.3125 27 34.3125C28.3427 34.3125 29.6303 33.7791 30.5797 32.8297C31.5291 31.8803 32.0625 30.5927 32.0625 29.25C32.0625 27.9073 31.5291 26.6197 30.5797 25.6703C29.6303 24.7209 28.3427 24.1875 27 24.1875ZM18.5625 29.25C18.5625 27.0122 19.4514 24.8661 21.0338 23.2838C22.6161 21.7014 24.7622 20.8125 27 20.8125C29.2378 20.8125 31.3839 21.7014 32.9662 23.2838C34.5486 24.8661 35.4375 27.0122 35.4375 29.25C35.4375 31.4878 34.5486 33.6339 32.9662 35.2162C31.3839 36.7986 29.2378 37.6875 27 37.6875C24.7622 37.6875 22.6161 36.7986 21.0338 35.2162C19.4514 33.6339 18.5625 31.4878 18.5625 29.25ZM38.8125 22.5C38.8125 22.0524 38.9903 21.6232 39.3068 21.3068C39.6232 20.9903 40.0524 20.8125 40.5 20.8125H42.75C43.1976 20.8125 43.6268 20.9903 43.9432 21.3068C44.2597 21.6232 44.4375 22.0524 44.4375 22.5C44.4375 22.9476 44.2597 23.3768 43.9432 23.6932C43.6268 24.0097 43.1976 24.1875 42.75 24.1875H40.5C40.0524 24.1875 39.6232 24.0097 39.3068 23.6932C38.9903 23.3768 38.8125 22.9476 38.8125 22.5Z" fill="#C99B9D"/>
</svg>
