<svg width="54" height="54" viewBox="0 0 54 54" fill="none" xmlns="http://www.w3.org/2000/svg">
<path fill-rule="evenodd" clip-rule="evenodd" d="M26.8717 2.8125H27.1283C32.3235 2.8125 36.3937 2.8125 39.5707 3.24C42.8197 3.6765 45.3848 4.59 47.3985 6.6015C49.4122 8.61525 50.3235 11.1803 50.76 14.4315C51.1875 17.6063 51.1875 21.6765 51.1875 26.8718V27.1283C51.1875 32.3235 51.1875 36.3938 50.76 39.5708C50.3235 42.8198 49.41 45.3848 47.3985 47.3985C45.3848 49.4123 42.8198 50.3235 39.5685 50.76C36.3938 51.1875 32.3235 51.1875 27.1283 51.1875H26.8717C21.6765 51.1875 17.6063 51.1875 14.4293 50.76C11.1803 50.3235 8.61525 49.41 6.6015 47.3985C4.58775 45.3848 3.6765 42.8198 3.24 39.5685C2.8125 36.3938 2.8125 32.3235 2.8125 27.1283V26.8718C2.8125 21.6765 2.8125 17.6063 3.24 14.4293C3.6765 11.1803 4.59 8.61525 6.6015 6.6015C8.61525 4.58775 11.1802 3.6765 14.4315 3.24C17.6063 2.8125 21.6765 2.8125 26.8717 2.8125ZM14.8792 6.5835C12.0037 6.9705 10.269 7.7085 8.98875 8.98875C7.70625 10.2713 6.9705 12.0038 6.5835 14.8815C6.192 17.8065 6.1875 21.6495 6.1875 27C6.1875 32.3505 6.192 36.1935 6.5835 39.1185C6.9705 41.9963 7.7085 43.731 8.98875 45.0135C10.2712 46.2938 12.0037 47.0295 14.8815 47.4165C17.8065 47.808 21.6495 47.8125 27 47.8125C32.3505 47.8125 36.1935 47.808 39.1185 47.4165C41.9962 47.0295 43.731 46.2915 45.0135 45.0113C46.2938 43.7288 47.0295 41.9963 47.4165 39.1185C47.808 36.1935 47.8125 32.3505 47.8125 27C47.8125 21.6495 47.808 17.8065 47.4165 14.8815C47.0295 12.0038 46.2915 10.269 45.0112 8.9865C43.7287 7.70625 41.9962 6.9705 39.1185 6.5835C36.1935 6.192 32.3505 6.1875 27 6.1875C21.6495 6.1875 17.8042 6.192 14.8792 6.5835ZM23.6655 14.526C23.8262 14.6788 23.9552 14.8619 24.0452 15.0646C24.1351 15.2673 24.1842 15.4858 24.1896 15.7075C24.195 15.9292 24.1567 16.1498 24.0768 16.3567C23.9969 16.5636 23.877 16.7527 23.724 16.9133L17.2957 23.6633C17.1381 23.8287 16.9486 23.9604 16.7386 24.0503C16.5286 24.1403 16.3025 24.1867 16.074 24.1867C15.8455 24.1867 15.6194 24.1403 15.4094 24.0503C15.1994 23.9604 15.0099 23.8287 14.8522 23.6633L12.2805 20.9633C12.1211 20.8041 11.9952 20.6147 11.9102 20.4062C11.8251 20.1977 11.7827 19.9742 11.7853 19.749C11.788 19.5238 11.8357 19.3014 11.9257 19.095C12.0156 18.8885 12.146 18.7021 12.3091 18.5469C12.4722 18.3916 12.6647 18.2705 12.8754 18.1908C13.086 18.111 13.3105 18.0743 13.5355 18.0827C13.7606 18.091 13.9817 18.1444 14.1858 18.2395C14.3899 18.3347 14.5729 18.4698 14.724 18.6368L16.074 20.0543L21.2805 14.5868C21.5891 14.2629 22.0137 14.0747 22.4609 14.0638C22.9081 14.0528 23.3414 14.2176 23.6655 14.526ZM27.5625 20.25C27.5625 19.8024 27.7403 19.3732 28.0568 19.0568C28.3732 18.7403 28.8024 18.5625 29.25 18.5625H40.5C40.9476 18.5625 41.3768 18.7403 41.6932 19.0568C42.0097 19.3732 42.1875 19.8024 42.1875 20.25C42.1875 20.6976 42.0097 21.1268 41.6932 21.4432C41.3768 21.7597 40.9476 21.9375 40.5 21.9375H29.25C28.8024 21.9375 28.3732 21.7597 28.0568 21.4432C27.7403 21.1268 27.5625 20.6976 27.5625 20.25ZM23.6633 30.2783C24.3383 30.9218 24.3653 31.9883 23.7218 32.6633L17.2935 39.4133C17.1359 39.5787 16.9463 39.7104 16.7363 39.8003C16.5263 39.8903 16.3002 39.9367 16.0718 39.9367C15.8433 39.9367 15.6172 39.8903 15.4072 39.8003C15.1972 39.7104 15.0076 39.5787 14.85 39.4133L12.2782 36.7133C12.1189 36.5541 11.9929 36.3647 11.9079 36.1562C11.8229 35.9477 11.7804 35.7242 11.7831 35.499C11.7858 35.2738 11.8335 35.0514 11.9234 34.845C12.0134 34.6385 12.1438 34.4522 12.3069 34.2969C12.47 34.1416 12.6625 34.0205 12.8731 33.9408C13.0838 33.861 13.3082 33.8243 13.5333 33.8327C13.7583 33.841 13.9794 33.8944 14.1835 33.9895C14.3876 34.0847 14.5706 34.2198 14.7218 34.3868L16.0718 35.8043L21.2782 30.3368C21.5868 30.0129 22.0114 29.8247 22.4586 29.8138C22.9059 29.8028 23.3392 29.9699 23.6633 30.2783ZM27.5625 36C27.5625 35.5525 27.7403 35.1232 28.0568 34.8068C28.3732 34.4903 28.8024 34.3125 29.25 34.3125H40.5C40.9476 34.3125 41.3768 34.4903 41.6932 34.8068C42.0097 35.1232 42.1875 35.5525 42.1875 36C42.1875 36.4476 42.0097 36.8768 41.6932 37.1932C41.3768 37.5097 40.9476 37.6875 40.5 37.6875H29.25C28.8024 37.6875 28.3732 37.5097 28.0568 37.1932C27.7403 36.8768 27.5625 36.4476 27.5625 36Z" fill="#C99B9D"/>
</svg>
