<svg width="54" height="54" viewBox="0 0 54 54" fill="none" xmlns="http://www.w3.org/2000/svg">
<path fill-rule="evenodd" clip-rule="evenodd" d="M26.5844 6.1875C25.2624 6.1875 23.9945 6.72087 23.0597 7.67027C22.1249 8.61967 21.5998 9.90734 21.5998 11.25V11.835C22.8337 11.8125 24.1873 11.8125 25.6761 11.8125H27.4949C28.9792 11.8125 30.335 11.8125 31.5712 11.835V11.25C31.5712 10.585 31.4422 9.9265 31.1916 9.31215C30.9409 8.69779 30.5736 8.1396 30.1105 7.66948C29.6474 7.19935 29.0976 6.8265 28.4926 6.57221C27.8876 6.31793 27.2392 6.1872 26.5844 6.1875ZM34.8921 11.988V11.25C34.8921 9.01224 34.0168 6.86612 32.4588 5.28379C30.9008 3.70145 28.7877 2.8125 26.5844 2.8125C24.3811 2.8125 22.268 3.70145 20.71 5.28379C19.152 6.86612 18.2767 9.01224 18.2767 11.25V11.988C17.9599 12.015 17.6564 12.0465 17.3595 12.0847C15.122 12.366 13.2788 12.9555 11.7103 14.2762C10.144 15.597 9.2335 17.3295 8.54894 19.512C7.88433 21.627 7.38365 24.3428 6.75448 27.7605L6.70796 28.008C5.81737 32.8297 5.11731 36.63 4.9866 39.6248C4.85368 42.696 5.30562 45.2385 7.01147 47.3243C8.71731 49.4123 11.0944 50.3303 14.0896 50.7645C17.0139 51.1875 20.8177 51.1875 25.6495 51.1875H27.5215C32.351 51.1875 36.1571 51.1875 39.0792 50.7645C42.0744 50.3303 44.4537 49.4123 46.1595 47.3243C47.8654 45.2385 48.3129 42.696 48.1822 39.6248C48.0537 36.63 47.3514 32.8297 46.4608 28.008L46.4165 27.7605C45.7851 24.3428 45.2822 21.6247 44.6221 19.512C43.9353 17.3295 43.027 15.597 41.4585 14.2762C39.8922 12.9555 38.0468 12.3637 35.8092 12.0847C35.5041 12.0467 35.1984 12.0145 34.8921 11.988ZM17.7672 15.435C15.873 15.6713 14.7276 16.119 13.8326 16.875C12.9398 17.6265 12.2952 18.6862 11.7147 20.5357C11.1232 22.4257 10.6558 24.9412 10 28.494C9.07842 33.4822 8.42488 37.044 8.30747 39.7733C8.19227 42.4508 8.61762 44.0033 9.56802 45.171C10.5206 46.3343 11.9451 47.043 14.5593 47.421C17.2177 47.808 20.7889 47.8125 25.7868 47.8125H27.3819C32.382 47.8125 35.9488 47.808 38.6095 47.4232C41.2236 47.043 42.6481 46.3343 43.6008 45.171C44.5534 44.0055 44.9765 42.453 44.8635 39.771C44.7439 37.0463 44.0904 33.4822 43.1688 28.494C42.513 24.939 42.0478 22.428 41.4541 20.5357C40.8736 18.6862 40.2312 17.6265 39.3361 16.8728C38.4411 16.119 37.298 15.6713 35.4016 15.4328C33.4609 15.1898 30.942 15.1875 27.3819 15.1875H25.7868C22.2267 15.1875 19.7078 15.1898 17.7672 15.435ZM32.1184 26.865C32.4475 27.1621 32.647 27.5796 32.6731 28.0259C32.6993 28.4723 32.55 28.9109 32.258 29.2455L26.3496 35.9955C26.2042 36.1618 26.0278 36.2973 25.8307 36.3942C25.6335 36.491 25.4195 36.5473 25.2008 36.5599C24.9822 36.5724 24.7632 36.541 24.5566 36.4673C24.35 36.3936 24.1597 36.2791 23.9968 36.1305L21.0415 33.4305C20.7136 33.1309 20.5164 32.7114 20.4931 32.2641C20.4698 31.8168 20.6225 31.3785 20.9174 31.0455C21.2124 30.7125 21.6255 30.5122 22.0659 30.4885C22.5063 30.4649 22.9379 30.6199 23.2657 30.9195L24.976 32.4855L29.7745 27.0045C30.067 26.6703 30.4781 26.4677 30.9176 26.4411C31.3571 26.4145 31.789 26.5684 32.1184 26.865Z" fill="#C99B9D"/>
</svg>
